# xmcd
#
# Track frame offsets:
#	150
#	16895
#	28374
#	44103
#	52659
#	74184
#	85220
#	98310
#	113557
#	130062
#	145045
#	162667
#	172510
#	187375
#	200181
#	217656
#	232071
#
# Disc length: 3401 seconds
#
# Revision: 1
# Processed by: cddbd v1.5.2PL0 Copyright (c) Steve Scherf et al.
# Submitted via: audiograbber 1.83.01
#
DISCID=f00d4711
DTITLE=TR Dallas - In Concert
DYEAR=1900
DGENRE=
TTITLE0=Picture Of You
TTITLE1=Hard To Just Stop Lovin'
TTITLE2=Road By The River
TTITLE3=Country Startime Band
TTITLE4=The Fields Of Athenry
TTITLE5=The Ballad Of Jack Dupree
TTITLE6=Beethoven Was Before My Time
TTITLE7=Hank Williams Selection
TTITLE8=One Hit Wonder
TTITLE9=Hits Medley
TTITLE10=Danny Boy
TTITLE11=Mean Woman Blues
TTITLE12=Further Down The Line
TTITLE13=Under The Double Eagle
TTITLE14=Answer Me
TTITLE15=Baby Hang On
TTITLE16=Rollin' In My Sweet Baby's Arms - Rose Of San Antone
EXTD=
EXTT0=
EXTT1=
EXTT2=
EXTT3=
EXTT4=
EXTT5=
EXTT6=
EXTT7=
EXTT8=
EXTT9=
EXTT10=
EXTT11=
EXTT12=
EXTT13=
EXTT14=
EXTT15=
EXTT16=
PLAYORDER=
